PathFileType	4	(X/Y/Z)	C:\Users\italobelli\Desktop\GitHub\PTbot_officialCBL\Personal_Results\SHRUG02_noisy2.trc
DataRate	CameraRate	NumFrames	NumMarkers	Units	OrigDataRate	OrigDataStartFrame	OrigNumFrames
112.250000	112.250000	25	9	m	112.250000	226	450
Frame#	Time		gu		centelbow		EpL		centpxt8		centijc7		ij		ts		aa		ai
			X1	Y1	Z1	X2	Y2	Z2	X3	Y3	Z3	X4	Y4	Z4	X5	Y5	Z5	X6	Y6	Z6	X7	Y7	Z7	X8	Y8	Z8	X9	Y9	Z9

226	2.0045	-0.065857	0.048243	0.15991	-0.099143	-0.18757	0.22855	-0.075999	-0.17948	0.24949	-0.046816	-0.15316	-0.008669	-0.046816	0.031938	-0.008669	0	0	0	-0.12938	0.057007	0.043352	-0.091532	0.087762	0.15216	-0.14705	-0.047214	0.08468
227	2.0134	-0.065984	0.047641	0.15998	-0.099403	-0.18826	0.22845	-0.076256	-0.18021	0.24941	-0.046816	-0.15316	-0.008669	-0.046816	0.031938	-0.008669	0	0	0	-0.1294	0.05685	0.043483	-0.091614	0.087216	0.15236	-0.14715	-0.047452	0.084475
228	2.0223	-0.066123	0.046965	0.16005	-0.099673	-0.18904	0.22833	-0.07652	-0.18103	0.24931	-0.046816	-0.15316	-0.008669	-0.046816	0.031938	-0.008669	0	0	0	-0.12943	0.056649	0.043627	-0.091717	0.08659	0.15258	-0.14727	-0.047741	0.084251
229	2.0312	-0.066275	0.04622	0.16012	-0.099952	-0.18989	0.22819	-0.076793	-0.18193	0.24918	-0.046816	-0.15316	-0.008669	-0.046816	0.031938	-0.008669	0	0	0	-0.12948	0.056407	0.043783	-0.091838	0.085889	0.15281	-0.14741	-0.048078	0.084007
230	2.0401	-0.066438	0.045408	0.16019	-0.10024	-0.19083	0.22803	-0.077073	-0.18291	0.24903	-0.046816	-0.15316	-0.008669	-0.046816	0.031938	-0.008669	0	0	0	-0.12955	0.056125	0.043951	-0.091978	0.085115	0.15307	-0.14756	-0.048462	0.083745
231	2.049	-0.066612	0.044532	0.16026	-0.10054	-0.19183	0.22784	-0.07736	-0.18396	0.24886	-0.046816	-0.15316	-0.008669	-0.046816	0.031938	-0.008669	0	0	0	-0.12963	0.055805	0.044131	-0.092135	0.084271	0.15334	-0.14774	-0.048889	0.083465
232	2.0579	-0.066797	0.043596	0.16033	-0.10084	-0.1929	0.22764	-0.077655	-0.18509	0.24866	-0.046816	-0.15316	-0.008669	-0.046816	0.031938	-0.008669	0	0	0	-0.12972	0.055449	0.044321	-0.09231	0.083362	0.15362	-0.14793	-0.049359	0.083168
233	2.0668	-0.066993	0.042602	0.16041	-0.10115	-0.19404	0.22741	-0.077956	-0.18628	0.24844	-0.046816	-0.15316	-0.008669	-0.046816	0.031938	-0.008669	0	0	0	-0.12983	0.055058	0.044522	-0.0925	0.08239	0.15393	-0.14813	-0.04987	0.082855
234	2.0757	-0.067197	0.041553	0.16049	-0.10147	-0.19524	0.22717	-0.078263	-0.18754	0.2482	-0.046816	-0.15316	-0.008669	-0.046816	0.031938	-0.008669	0	0	0	-0.12995	0.054634	0.044732	-0.092705	0.081359	0.15424	-0.14835	-0.050418	0.082526
235	2.0846	-0.067412	0.040454	0.16057	-0.1018	-0.1965	0.2269	-0.078576	-0.18886	0.24795	-0.046816	-0.15316	-0.008669	-0.046816	0.031938	-0.008669	0	0	0	-0.13008	0.054179	0.044951	-0.092925	0.080271	0.15457	-0.14858	-0.051003	0.082183
236	2.0935	-0.067634	0.039305	0.16065	-0.10213	-0.19781	0.22663	-0.078895	-0.19023	0.24767	-0.046816	-0.15316	-0.008669	-0.046816	0.031938	-0.008669	0	0	0	-0.13023	0.053694	0.045179	-0.093159	0.079131	0.15492	-0.14883	-0.051621	0.081827
237	2.1024	-0.067865	0.038112	0.16073	-0.10247	-0.19917	0.22633	-0.07922	-0.19166	0.24738	-0.046816	-0.15316	-0.008669	-0.046816	0.031938	-0.008669	0	0	0	-0.13039	0.053181	0.045416	-0.093406	0.07794	0.15527	-0.14909	-0.052272	0.081457
238	2.1114	-0.068104	0.036877	0.16081	-0.10281	-0.20059	0.22602	-0.079549	-0.19314	0.24707	-0.046816	-0.15316	-0.008669	-0.046816	0.031938	-0.008669	0	0	0	-0.13056	0.052642	0.045659	-0.093665	0.076704	0.15564	-0.14936	-0.052953	0.081076
239	2.1203	-0.06835	0.035602	0.16089	-0.10316	-0.20204	0.2257	-0.079883	-0.19466	0.24675	-0.046816	-0.15316	-0.008669	-0.046816	0.031938	-0.008669	0	0	0	-0.13073	0.052079	0.04591	-0.093936	0.075424	0.15601	-0.14964	-0.053662	0.080683
240	2.1292	-0.068603	0.034292	0.16098	-0.10352	-0.20354	0.22536	-0.080221	-0.19623	0.24641	-0.046816	-0.15316	-0.008669	-0.046816	0.031938	-0.008669	0	0	0	-0.13092	0.051493	0.046167	-0.094217	0.074104	0.1564	-0.14994	-0.054398	0.080279
241	2.1381	-0.068863	0.032949	0.16106	-0.10387	-0.20507	0.22501	-0.080563	-0.19784	0.24606	-0.046816	-0.15316	-0.008669	-0.046816	0.031938	-0.008669	0	0	0	-0.13112	0.050886	0.04643	-0.094509	0.072747	0.15679	-0.15024	-0.055157	0.079866
242	2.147	-0.069128	0.031576	0.16115	-0.10424	-0.20664	0.22464	-0.080909	-0.19948	0.24569	-0.046816	-0.15316	-0.008669	-0.046816	0.031938	-0.008669	0	0	0	-0.13132	0.05026	0.046699	-0.09481	0.071358	0.15719	-0.15055	-0.055938	0.079444
243	2.1559	-0.069398	0.030176	0.16123	-0.1046	-0.20824	0.22427	-0.081259	-0.20115	0.24532	-0.046816	-0.15316	-0.008669	-0.046816	0.031938	-0.008669	0	0	0	-0.13153	0.049616	0.046972	-0.095119	0.069938	0.1576	-0.15087	-0.056739	0.079014
244	2.1648	-0.069673	0.028753	0.16132	-0.10497	-0.20986	0.22389	-0.081611	-0.20285	0.24493	-0.046816	-0.15316	-0.008669	-0.046816	0.031938	-0.008669	0	0	0	-0.13175	0.048956	0.04725	-0.095437	0.068491	0.15802	-0.15119	-0.057559	0.078576
245	2.1737	-0.069953	0.02731	0.1614	-0.10535	-0.21151	0.22349	-0.081967	-0.20457	0.24453	-0.046816	-0.15316	-0.008669	-0.046816	0.031938	-0.008669	0	0	0	-0.13198	0.048282	0.047531	-0.095761	0.06702	0.15844	-0.15153	-0.058394	0.078132
246	2.1826	-0.070237	0.025849	0.16149	-0.10572	-0.21317	0.22309	-0.082324	-0.20632	0.24413	-0.046816	-0.15316	-0.008669	-0.046816	0.031938	-0.008669	0	0	0	-0.13221	0.047596	0.047816	-0.096092	0.065529	0.15886	-0.15186	-0.059243	0.077682
247	2.1915	-0.070524	0.024373	0.16158	-0.1061	-0.21486	0.22268	-0.082684	-0.20808	0.24371	-0.046816	-0.15316	-0.008669	-0.046816	0.031938	-0.008669	0	0	0	-0.13244	0.046898	0.048103	-0.096428	0.064021	0.15929	-0.15221	-0.060104	0.077228
248	2.2004	-0.070813	0.022887	0.16166	-0.10648	-0.21655	0.22226	-0.083046	-0.20985	0.24329	-0.046816	-0.15316	-0.008669	-0.046816	0.031938	-0.008669	0	0	0	-0.13268	0.046192	0.048393	-0.096769	0.062499	0.15972	-0.15255	-0.060975	0.076769
249	2.2094	-0.071106	0.021392	0.16175	-0.10686	-0.21826	0.22184	-0.083409	-0.21164	0.24286	-0.046816	-0.15316	-0.008669	-0.046816	0.031938	-0.008669	0	0	0	-0.13293	0.045478	0.048684	-0.097114	0.060967	0.16015	-0.1529	-0.061854	0.076307
250	2.2183	-0.0714	0.019892	0.16184	-0.10724	-0.21997	0.22141	-0.083773	-0.21343	0.24243	-0.046816	-0.15316	-0.008669	-0.046816	0.031938	-0.008669	0	0	0	-0.13317	0.044758	0.048976	-0.097462	0.059427	0.16059	-0.15326	-0.062739	0.075843
